#!OML:ASF E:\Steps\Project 1\Capture day 1\Session 2\Subject.ASF
:FULLY-SPECIFIED
:DEGREES
495
root 3.88877 17.1166 16.5256 -155.322 -3.13673 178.831
lowerback -29.4541 -2.06975 -5.54162
upperback -2.40077 -1.75872 0.218001
thorax 12.9606 -1.44821 2.49613
lowerneck -3.15318 -3.434 -1.05298
upperneck 1.18914 -4.5573 0.871151
head 0.930234 -2.27274 0.360165
rclavicle -2.36057e-015 -1.61016e-014
rhumerus -39.4736 -24.3948 -72.3029
rradius 26.3773
rwrist 3.41365
rhand -7.94136 -53.6008
rfingers 7.12502
rthumb 17.9653 277.209
lclavicle -2.36057e-015 -1.61016e-014
lhumerus -33.5153 8.21189 78.6807
lradius 15.654
lwrist -11.9305
lhand -19.844 -11.8913
lfingers 7.12502
lthumb 6.49045 17.9893
rfemur -23.8814 3.99433 21.7415
rtibia 8.91128
rfoot -19.1723 4.1194
rtoes 7.51205
lfemur -24.2154 -8.12084 -21.734
ltibia 10.2554
lfoot -8.39081 -0.275924
ltoes -42.5449
496
root 3.88702 17.1162 16.5264 -155.349 -3.11425 178.798
lowerback -29.4164 -2.06131 -5.60741
upperback -2.39171 -1.72555 0.222209
thorax 12.9525 -1.43548 2.55017
lowerneck -3.08655 -3.30685 -1.38702
upperneck 0.931587 -4.38093 1.15312
head 0.852656 -2.18375 0.508064
rclavicle -1.13307e-014 -1.94809e-014
rhumerus -39.4352 -24.4261 -72.267
rradius 26.2717
rwrist 3.4979
rhand -7.99085 -54.0648
rfingers 7.12502
rthumb 17.9176 276.741
lclavicle -1.13307e-014 -1.94809e-014
lhumerus -33.428 8.12706 78.7502
lradius 15.8066
lwrist -11.9639
lhand -19.7981 -12.3325
lfingers 7.12502
lthumb 6.53477 17.5467
rfemur -23.8635 3.95127 21.7013
rtibia 8.94155
rfoot -18.0727 4.03158
rtoes 4.20547
lfemur -24.208 -8.10805 -21.7935
ltibia 10.3103
lfoot -7.94242 -0.342147
ltoes -37.5229
497
root 3.88569 17.1158 16.5273 -155.391 -3.12904 178.789
lowerback -29.3023 -2.0664 -5.59913
upperback -2.40688 -1.73977 0.217993
thorax 12.8853 -1.43903 2.53933
lowerneck -2.742 -3.12642 -1.79329
upperneck 0.577441 -4.13777 1.66624
head 0.704442 -2.06035 0.74555
rclavicle -5.86415e-015 -8.54774e-015
rhumerus -39.4347 -24.3441 -72.312
rradius 26.2458
rwrist 3.51289
rhand -8.05626 -54.3945
rfingers 7.12502
rthumb 17.8547 276.405
lclavicle -5.86415e-015 -8.54774e-015
lhumerus -33.3436 8.16406 78.7093
lradius 15.9248
lwrist -11.9597
lhand -19.7785 -12.2655
lfingers 7.12502
lthumb 6.55368 17.6131
rfemur -23.8094 3.90166 21.7058
rtibia 8.92373
rfoot -19.1967 4.12565
rtoes 6.90654
lfemur -24.14 -8.14698 -21.8064
ltibia 10.27
lfoot -8.41396 -0.232804
ltoes -42.7586
498
root 3.88485 17.1149 16.5285 -155.406 -3.12559 178.818
lowerback -29.2456 -2.06408 -5.57567
upperback -2.41934 -1.74947 0.230523
thorax 12.8468 -1.44136 2.5383
lowerneck -3.06085 -3.20438 -1.52953
upperneck 0.944338 -4.24226 1.32902
head 0.85865 -2.11302 0.588455
rclavicle 1.04362e-015 -1.63003e-014
rhumerus -39.4768 -24.2831 -72.3094
rradius 26.2741
rwrist 3.48097
rhand -8.03205 -54.4449
rfingers 7.12502
rthumb 17.878 276.357
lclavicle 1.04362e-015 -1.63003e-014
lhumerus -33.2282 8.11088 78.7273
lradius 16.078
lwrist -11.7128
lhand -19.784 -11.921
lfingers 7.12502
lthumb 6.54837 17.9577
rfemur -23.7929 3.92859 21.74
rtibia 8.91199
rfoot -18.2827 4.11263
rtoes 3.12184
lfemur -24.1099 -8.18104 -21.7735
ltibia 10.2283
lfoot -7.89237 -0.2264
ltoes -37.4215
499
root 3.88416 17.1152 16.5288 -155.415 -3.16963 178.831
lowerback -29.2678 -2.08407 -5.59705
upperback -2.38871 -1.7643 0.255776
thorax 12.8945 -1.449 2.57079
lowerneck -2.8673 -3.13502 -1.76128
upperneck 0.716667 -4.14848 1.62832
head 0.767175 -2.06512 0.725458
rclavicle -9.11925e-015 -8.15017e-015
rhumerus -39.4725 -24.3026 -72.2822
rradius 26.2615
rwrist 3.48125
rhand -8.22706 -53.8185
rfingers 7.12502
rthumb 17.6903 276.966
lclavicle -9.11925e-015 -8.15017e-015
lhumerus -33.0535 8.04964 78.784
lradius 16.2169
lwrist -11.5034
lhand -19.9317 -12.0104
lfingers 7.12502
lthumb 6.40576 17.8727
rfemur -23.7274 3.93575 21.7524
rtibia 8.80164
rfoot -19.2673 4.03445
rtoes 5.94018
lfemur -24.1265 -8.0886 -21.7795
ltibia 10.2701
lfoot -8.37068 -0.359946
ltoes -42.2922
500
root 3.88345 17.1163 16.5289 -155.429 -3.2217 178.844
lowerback -29.3197 -2.09269 -5.6093
upperback -2.32103 -1.75634 0.259764
thorax 12.995 -1.44494 2.58323
lowerneck -3.08351 -3.1421 -1.60786
upperneck 0.947719 -4.15772 1.42079
head 0.866623 -2.07001 0.630872
rclavicle -1.66731e-014 -1.17283e-014
rhumerus -39.3823 -24.3654 -72.3191
rradius 26.2516
rwrist 3.45046
rhand -8.53516 -52.1806
rfingers 7.12502
rthumb 17.3939 278.578
lclavicle -1.66731e-014 -1.17283e-014
lhumerus -32.8127 7.87439 78.8781
lradius 16.3407
lwrist -11.4121
lhand -20.1518 -12.165
lfingers 7.12502
lthumb 6.19329 17.7245
rfemur -23.6479 3.83983 21.7794
rtibia 8.66237
rfoot -18.2868 4.19205
rtoes 3.22433
lfemur -24.132 -8.02206 -21.7712
ltibia 10.3109
lfoot -8.02552 -0.541017
ltoes -37.7807
501
root 3.8824 17.1167 16.53 -155.439 -3.21295 178.887
lowerback -29.4011 -2.06975 -5.6
upperback -2.23865 -1.7115 0.269893
thorax 13.1224 -1.42343 2.60402
lowerneck -2.86937 -2.82386 -2.27587
upperneck 0.0627504 -3.72294 2.06934
head 0.579377 -1.85314 0.95974
rclavicle -1.11816e-015 -7.15625e-015
rhumerus -39.228 -24.5435 -72.29
rradius 26.1638
rwrist 3.55391
rhand -8.51051 -51.9593
rfingers 7.12502
rthumb 17.4176 278.801
lclavicle -1.11816e-015 -7.15625e-015
lhumerus -32.5721 7.44232 79.1358
lradius 16.5996
lwrist -11.0112
lhand -20.1247 -12.1496
lfingers 7.12502
lthumb 6.21942 17.7391
rfemur -23.6414 3.76154 21.8458
rtibia 8.6722
rfoot -19.6522 4.35177
rtoes 8.01361
lfemur -24.1198 -8.02234 -21.719
ltibia 10.321
lfoot -8.23771 -0.424818
ltoes -40.7058
502
root 3.87955 17.1175 16.5302 -155.497 -3.23467 178.886
lowerback -29.3861 -2.07019 -5.63812
upperback -2.20396 -1.69469 0.289756
thorax 13.1555 -1.41661 2.65319
lowerneck -3.31394 -3.15048 -1.47513
upperneck 1.26213 -4.16827 1.23552
head 0.99623 -2.0754 0.54575
rclavicle 5.26779e-015 -8.34896e-015
rhumerus -39.1251 -24.6703 -72.1923
rradius 25.9937
rwrist 3.74868
rhand -8.5017 -51.8627
rfingers 7.12502
rthumb 17.4261 278.898
lclavicle 5.26779e-015 -8.34896e-015
lhumerus -32.5014 6.81565 79.4756
lradius 16.9961
lwrist -10.1996
lhand -19.8999 -12.4008
lfingers 7.12502
lthumb 6.43647 17.4814
rfemur -23.5737 3.76054 21.8506
rtibia 8.73192
rfoot -19.7533 4.38205
rtoes 7.65879
lfemur -24.0459 -8.05653 -21.7313
ltibia 10.2965
lfoot -8.01367 -0.348546
ltoes -40.2558
503
root 3.87678 17.1179 16.5302 -155.558 -3.21629 178.886
lowerback -29.335 -2.06508 -5.69413
upperback -2.20666 -1.6741 0.313359
thorax 13.1295 -1.40955 2.71852
lowerneck -3.11978 -2.85491 -2.05202
upperneck 0.673262 -3.76242 1.70499
head 0.79801 -1.87201 0.801367
rclavicle -7.70291e-016 -3.57812e-015
rhumerus -39.0988 -24.5961 -72.1681
rradius 25.9277
rwrist 3.78998
rhand -8.37497 -51.6149
rfingers 7.12502
rthumb 17.548 279.157
lclavicle -7.70291e-016 -3.57812e-015
lhumerus -32.4772 6.29877 79.7342
lradius 17.2866
lwrist -9.58856
lhand -20.0128 -12.7314
lfingers 7.12502
lthumb 6.32748 17.1541
rfemur -23.5077 3.91929 21.8033
rtibia 8.7676
rfoot -17.8379 4.02403
rtoes 3.24527
lfemur -23.9537 -8.11275 -21.7464
ltibia 10.2413
lfoot -7.66269 -0.316039
ltoes -37.1103
504
root 3.8747 17.1179 16.5324 -155.565 -3.18903 178.936
lowerback -29.3292 -2.04719 -5.65968
upperback -2.21471 -1.66542 0.327096
thorax 13.117 -1.40406 2.71827
lowerneck -3.31113 -3.13391 -1.47127
upperneck 1.5429 -4.14796 1.2814
head 1.08482 -2.06379 0.557629
rclavicle 9.44227e-016 -1.72943e-014
rhumerus -39.0729 -24.5204 -72.226
rradius 25.9244
rwrist 3.82291
rhand -8.13579 -53.1626
rfingers 7.12502
rthumb 17.7782 277.63
lclavicle 9.44227e-016 -1.72943e-014
lhumerus -32.3103 6.17085 79.815
lradius 17.3797
lwrist -9.45203
lhand -20.3836 -12.6883
lfingers 7.12502
lthumb 5.96944 17.2076
rfemur -23.5231 4.14983 21.8006
rtibia 8.76889
rfoot -19.0746 3.91436
rtoes 6.08468
lfemur -23.9477 -8.14913 -21.6877
ltibia 10.2237
lfoot -8.09633 -0.253786
ltoes -41.5598
505
root 3.87208 17.12 16.5344 -155.597 -3.26426 178.938
lowerback -29.2801 -2.06998 -5.6321
upperback -2.20954 -1.70331 0.323833
thorax 13.1039 -1.4181 2.68682
lowerneck -3.29019 -3.16897 -1.53549
upperneck 1.61096 -4.1944 1.358
head 1.10695 -2.08621 0.590802
rclavicle -1.14798e-014 3.57812e-015
rhumerus -39.0715 -24.4432 -72.3189
rradius 25.9918
rwrist 3.80607
rhand -8.21165 -53.2175
rfingers 7.12502
rthumb 17.7052 277.569
lclavicle -1.14798e-014 3.57812e-015
lhumerus -32.1077 6.12771 79.8509
lradius 17.5185
lwrist -9.33112
lhand -20.6283 -12.468
lfingers 7.12502
lthumb 5.73322 17.4344
rfemur -23.4577 4.43751 21.7395
rtibia 8.68596
rfoot -17.7501 3.46956
rtoes 1.14964
lfemur -23.9235 -8.179 -21.6823
ltibia 10.2208
lfoot -7.69579 -0.338554
ltoes -37.0524
